. 
  
http://www.torrentday.com   -    Your Key To The Scene.

Now TvTeam with [No-RAR] Releases.

(((((((((((((= Enjoy No RAR releases =))))))))))))))))))))

...................................NFO:....................................

.
                                                     
                                                   
                                                         
                                                          
                                                           
                                                          
                                                          
                                                          
                                                           
                                                         
                                                          
                                                        
                                                      
                                     
                                                 
                                                   
                                             
                                              
                                                     
                                                      
                                                      
                                                      
                                                    
                                                     
                                                   
                                                     
                                                     
                                                      
                                                     
                                                      
                                                    
                 ARTiCHOKE                        
                                                
                      
                                                        
                                                      
                                                      
                                               
                                          
                                                   
                                            
                                                    
                                                       
                                                        
                                                      
                                                
                                                        
                                                 
                                              
                                                  
                                                
                                                  
                                        

      
                                
      SPRiNTER proudly presents...     
                                
      
 
 Geek.Mythology.2008.DVDRip.XViD-SPRiNTER  http://www.imdb.com/title/tt1188483/
 Subtitles: N/A

 Date: 2010.05

 Director: Phil Hwang
 Genre:  Comedy
 Plot:  It's hard keeping it in his pants. 

 Cast:

 Gregg Martin ...  Tim 
 Joy Boden ...  Renee 
 Dave Gist ...  Wallace 
 Cullen Cowan ...  Steve 
 Michelle Davis ...  Pixie 
 Sandra Rapale ...  Alisa 
 Lindsey Styrwoll ...  Nikki 
 Leslie Ezeh ...  Corrine 


      
                 
      Release notes     
                 
      

 Enjoy!


      
           
     Greetings    
           
      


 NTX aAF FiCO HNR CiNEFiLE AEN HUMANiSM TASTE


      
           
      Details     
           
      

Format                           : AVI
Format/Info                      : Audio Video Interleave
File size                        : 695 MiB
Duration                         : 1h 20mn
Overall bit rate                 : 1 201 Kbps
Writing application              : Nandub v1.0rc2
Writing library                  : Nandub build 1852/release

Video
ID                               : 0
Format                           : MPEG-4 Visual
Format profile                   : Advanced Simple@L5
Format settings, BVOP            : No
Format settings, QPel            : No
Format settings, GMC             : No warppoints
Format settings, Matrix          : Default (H.263)
Codec ID                         : XVID
Codec ID/Hint                    : XviD
Duration                         : 1h 20mn
Bit rate                         : 1 027 Kbps
Width                            : 560 pixels
Height                           : 304 pixels
Display aspect ratio             : 16:9
Frame rate                       : 29.970 fps
Resolution                       : 8 bits
Colorimetry                      : 4:2:0
Scan type                        : Progressive
Bits/(Pixel*Frame)               : 0.201
Stream size                      : 594 MiB (86%)
Writing library                  : XviD 1.1.2 (UTC 2006-11-01)

Audio
ID                               : 1
Format                           : MPEG Audio
Format version                   : Version 1
Format profile                   : Layer 3
Codec ID                         : 55
Codec ID/Hint                    : MP3
Duration                         : 1h 20mn
Bit rate mode                    : Variable
Bit rate                         : 117 Kbps
Minimum bit rate                 : 40.0 Kbps
Channel(s)                       : 2 channels
Sampling rate                    : 48.0 KHz
Stream size                      : 68.0 MiB (10%)
Alignment                        : Aligned on interleaves
Writing library                  : LAME3.95 
Encoding settings                : -m s -V 6 -q 3 -lowpass 16 --vbr-old -b 40